<svg width="30" height="30" viewBox="0 0 30 30" fill="none" xmlns="http://www.w3.org/2000/svg">
<path d="M21.5625 8.4375H4.6875C4.19022 8.4375 3.71331 8.63504 3.36167 8.98668C3.01004 9.33831 2.8125 9.81522 2.8125 10.3125V23.4375C2.8125 23.9348 3.01004 24.4117 3.36167 24.7633C3.71331 25.115 4.19022 25.3125 4.6875 25.3125H21.5625C22.0598 25.3125 22.5367 25.115 22.8883 24.7633C23.24 24.4117 23.4375 23.9348 23.4375 23.4375V10.3125C23.4375 9.81522 23.24 9.33831 22.8883 8.98668C22.5367 8.63504 22.0598 8.4375 21.5625 8.4375ZM21.5625 23.4375H4.6875V10.3125H21.5625V23.4375ZM27.1875 6.5625V20.625C27.1875 20.8736 27.0887 21.1121 26.9129 21.2879C26.7371 21.4637 26.4986 21.5625 26.25 21.5625C26.0014 21.5625 25.7629 21.4637 25.5871 21.2879C25.4113 21.1121 25.3125 20.8736 25.3125 20.625V6.5625H7.5C7.25136 6.5625 7.0129 6.46373 6.83709 6.28791C6.66127 6.1121 6.5625 5.87364 6.5625 5.625C6.5625 5.37636 6.66127 5.1379 6.83709 4.96209C7.0129 4.78627 7.25136 4.6875 7.5 4.6875H25.3125C25.8098 4.6875 26.2867 4.88504 26.6383 5.23667C26.99 5.58831 27.1875 6.06522 27.1875 6.5625Z" fill="#263238"/>
</svg>
