<svg width="20" height="22" viewBox="0 0 20 22" fill="none" xmlns="http://www.w3.org/2000/svg">
<path d="M1.25 10.95C1.25 9.2525 1.25 8.40375 1.5925 7.6575C1.93625 6.91125 2.58 6.36 3.86875 5.255L5.11875 4.18375C7.45 2.1875 8.6125 1.1875 10 1.1875C11.3875 1.1875 12.5512 2.18625 14.8812 4.1825L16.1313 5.25375C17.4188 6.35875 18.0638 6.91 18.4063 7.65625C18.75 8.4025 18.75 9.25125 18.75 10.9488V16.25C18.75 18.6075 18.75 19.785 18.0175 20.5175C17.285 21.25 16.1075 21.25 13.75 21.25H6.25C3.8925 21.25 2.715 21.25 1.9825 20.5175C1.25 19.785 1.25 18.6075 1.25 16.25V10.95Z" stroke="#0172FC" stroke-width="1.5"/>
<path d="M13.125 21.25V15C13.125 14.6685 12.9933 14.3505 12.7589 14.1161C12.5245 13.8817 12.2065 13.75 11.875 13.75H8.125C7.79348 13.75 7.47554 13.8817 7.24112 14.1161C7.0067 14.3505 6.875 14.6685 6.875 15V21.25" stroke="#0172FC" stroke-width="1.5" stroke-linecap="round" stroke-linejoin="round"/>
</svg>
