<svg width="28" height="29" viewBox="0 0 28 29" fill="none" xmlns="http://www.w3.org/2000/svg">
<path d="M24.4441 4.056C23.6609 3.27375 22.5993 2.83437 21.4924 2.83437C20.3855 2.83437 19.3239 3.27375 18.5408 4.056L4.59676 18C4.12255 18.4737 3.78932 19.0699 3.63426 19.722L2.35676 25.091C2.32217 25.2364 2.32541 25.3883 2.36618 25.5321C2.40694 25.6759 2.48387 25.8069 2.58963 25.9125C2.69539 26.0182 2.82645 26.095 2.97031 26.1356C3.11417 26.1762 3.26604 26.1793 3.41142 26.1445L8.77926 24.8658C9.43178 24.711 10.0284 24.3777 10.5024 23.9033L24.4441 9.96167C25.2263 9.17853 25.6657 8.1169 25.6657 7.01C25.6657 5.9031 25.2263 4.84147 24.4441 4.05833M19.7774 5.295C20.0026 5.06978 20.27 4.89113 20.5643 4.76925C20.8585 4.64736 21.1739 4.58463 21.4924 4.58463C21.8109 4.58463 22.1263 4.64736 22.4206 4.76925C22.7148 4.89113 22.9822 5.06978 23.2074 5.295C23.4326 5.52022 23.6113 5.78759 23.7332 6.08185C23.8551 6.37611 23.9178 6.6915 23.9178 7.01C23.9178 7.32851 23.8551 7.64389 23.7332 7.93815C23.6113 8.23241 23.4326 8.49978 23.2074 8.725L22.1668 9.76217L18.7368 6.33333L19.7774 5.295ZM17.5001 7.57233L20.9301 11L9.26342 22.6667C9.01842 22.9117 8.71042 23.0832 8.37326 23.1637L4.38792 24.1133L5.33642 20.128C5.41692 19.7897 5.58959 19.4817 5.83459 19.2367L17.5001 7.57233Z" fill="#0172FC"/>
</svg>
