<svg width="430" height="457" viewBox="0 0 430 457" fill="none" xmlns="http://www.w3.org/2000/svg">
<path d="M512 402.402H-92V402.704H512V402.402Z" fill="#EBEBEB"/>
<path d="M11.3805 413.902H-28.6284V414.204H11.3805V413.902Z" fill="#EBEBEB"/>
<path d="M171.211 410.628H114.737V410.93H171.211V410.628Z" fill="#EBEBEB"/>
<path d="M67.444 423.24H44.2625V423.542H67.444V423.24Z" fill="#EBEBEB"/>
<path d="M321.788 417.997H285.295V418.299H321.788V417.997Z" fill="#EBEBEB"/>
<path d="M355.878 417.997H332.54V418.299H355.878V417.997Z" fill="#EBEBEB"/>
<path d="M451.491 423.095H380.751V423.397H451.491V423.095Z" fill="#EBEBEB"/>
<path d="M194.296 348.525H-38.9569C-40.7842 348.522 -42.5356 347.793 -43.8265 346.5C-45.1175 345.207 -45.8425 343.454 -45.8425 341.627V13.7397C-45.8266 11.9229 -45.0945 10.1857 -43.8053 8.90553C-42.5161 7.62534 -40.7738 6.90552 -38.9569 6.9024H194.296C196.125 6.9024 197.88 7.62912 199.173 8.92269C200.467 10.2163 201.193 11.9707 201.193 13.8001V341.627C201.193 343.456 200.467 345.211 199.173 346.505C197.88 347.798 196.125 348.525 194.296 348.525ZM-38.9569 7.14401C-40.7041 7.14721 -42.3787 7.84352 -43.613 9.0801C-44.8473 10.3167 -45.5405 11.9925 -45.5405 13.7397V341.627C-45.5405 343.374 -44.8473 345.05 -43.613 346.287C-42.3787 347.523 -40.7041 348.22 -38.9569 348.223H194.296C196.044 348.22 197.72 347.524 198.956 346.287C200.192 345.051 200.888 343.375 200.891 341.627V13.7397C200.888 11.9914 200.192 10.3156 198.956 9.07936C197.72 7.84312 196.044 7.1472 194.296 7.14401H-38.9569Z" fill="#EBEBEB"/>
<path d="M455.598 348.525H222.333C220.505 348.522 218.752 347.794 217.46 346.501C216.167 345.208 215.439 343.456 215.436 341.627V13.7397C215.455 11.9218 216.19 10.1846 217.481 8.90478C218.772 7.62492 220.515 6.90548 222.333 6.9024H455.598C457.413 6.90869 459.152 7.62992 460.439 8.90977C461.725 10.1896 462.456 11.925 462.472 13.7397V341.627C462.472 343.452 461.748 345.203 460.46 346.496C459.172 347.789 457.423 348.518 455.598 348.525ZM222.333 7.14401C220.585 7.1472 218.909 7.84312 217.673 9.07936C216.437 10.3156 215.741 11.9914 215.738 13.7397V341.627C215.741 343.375 216.437 345.051 217.673 346.287C218.909 347.524 220.585 348.22 222.333 348.223H455.598C457.347 348.22 459.022 347.524 460.259 346.287C461.495 345.051 462.191 343.375 462.194 341.627V13.7397C462.191 11.9914 461.495 10.3156 460.259 9.07936C459.022 7.84312 457.347 7.1472 455.598 7.14401H222.333Z" fill="#EBEBEB"/>
<path d="M16.1279 236.688L303.547 236.688V56.8291L16.1279 56.8291V236.688Z" fill="#F0F0F0"/>
<path d="M297.918 228.232V65.2851L21.7453 65.2851V228.232L297.918 228.232Z" fill="#FAFAFA"/>
<path d="M261.57 228.232L233.23 65.2851H212.344L240.671 228.232H261.57Z" fill="white"/>
<path d="M235.851 228.232L207.524 65.2851H198.186L226.513 228.232H235.851Z" fill="white"/>
<path d="M190.14 228.232L161.813 65.2851H140.927L169.254 228.232H190.14Z" fill="white"/>
<path d="M137.484 228.232L109.144 65.2851H99.8064L128.134 228.232H137.484Z" fill="white"/>
<path d="M225.354 228.232V65.285H223.928V228.232H225.354Z" fill="#E0E0E0"/>
<path d="M297.918 228.244V65.2971H296.493V228.244H297.918Z" fill="#E0E0E0"/>
<path d="M230.983 228.232V65.2851H225.354V228.232H230.983Z" fill="#F0F0F0"/>
<path d="M155.64 228.232V65.2851H154.215V228.232H155.64Z" fill="#E0E0E0"/>
<path d="M161.257 228.232V65.2851H155.628V228.232H161.257Z" fill="#F0F0F0"/>
<path d="M85.8779 228.232L85.8779 65.2851H84.4525L84.4525 228.232H85.8779Z" fill="#E0E0E0"/>
<path d="M91.5073 228.244L91.5073 65.2971H85.878L85.878 228.244H91.5073Z" fill="#F0F0F0"/>
<path d="M16.116 236.688L16.116 56.829H14.6905L14.6905 236.688H16.116Z" fill="#E0E0E0"/>
<path d="M-13.0812 44.4833H316.304C316.802 44.4833 317.279 44.2864 317.632 43.9356C317.986 43.5848 318.185 43.1086 318.189 42.6109C318.189 42.1111 317.99 41.6318 317.637 41.2784C317.283 40.925 316.804 40.7264 316.304 40.7264H-13.0812C-13.5789 40.7296 -14.0551 40.9296 -14.4059 41.2826C-14.7567 41.6357 -14.9536 42.1132 -14.9536 42.6109C-14.9504 43.1065 -14.7522 43.5809 -14.4017 43.9314C-14.0512 44.2818 -13.5768 44.4801 -13.0812 44.4833Z" fill="#E0E0E0"/>
<g opacity="0.6">
<path d="M186.722 365.28H311.702L311.702 37.1024H186.722L186.722 365.28Z" fill="#F5F5F5"/>
<path d="M262.717 367.962H273.191L270.255 39.7842H265.568L262.717 367.962Z" fill="#E6E6E6"/>
<path d="M285.826 367.962H290.888L289.463 39.7842H287.204L285.826 367.962Z" fill="#E6E6E6"/>
<path d="M232.348 367.962H237.398L235.984 39.7842H233.725L232.348 367.962Z" fill="#E6E6E6"/>
<path d="M206.618 367.962H211.667L210.254 39.7842H207.995L206.618 367.962Z" fill="#E6E6E6"/>
</g>
<g opacity="0.6">
<path d="M-6.63071 365.28H55.8591L55.8591 37.1024H-6.63071L-6.63071 365.28Z" fill="#F5F5F5"/>
<path d="M31.3728 367.962H36.6034L35.1418 39.7842H32.7982L31.3728 367.962Z" fill="#E6E6E6"/>
<path d="M42.9214 367.962H45.4461L44.7455 39.7842H43.6099L42.9214 367.962Z" fill="#E6E6E6"/>
<path d="M16.1882 367.962H18.713L18.0002 39.7842H16.8768L16.1882 367.962Z" fill="#E6E6E6"/>
<path d="M3.323 367.962H5.84771L5.135 39.7842H3.99948L3.323 367.962Z" fill="#E6E6E6"/>
</g>
<path d="M427.114 87.8384H344.209V191.316H427.114V87.8384Z" fill="#E6E6E6"/>
<path d="M430.762 87.8384H345.453V191.316H430.762V87.8384Z" fill="#F5F5F5"/>
<path d="M424.227 183.971V95.183H352V183.971H424.227Z" fill="#FAFAFA"/>
<path d="M424.227 183.971V95.183H423.55V183.971H424.227Z" fill="#E6E6E6"/>
<path d="M412.004 133.743C416.08 129.667 416.08 123.058 412.004 118.982C407.928 114.907 401.32 114.907 397.244 118.982C393.168 123.058 393.168 129.667 397.244 133.743C401.32 137.819 407.928 137.819 412.004 133.743Z" fill="#F0F0F0"/>
<path d="M402.952 157.017C411.236 148.733 411.236 135.302 402.952 127.018C394.668 118.734 381.237 118.734 372.953 127.018C364.669 135.302 364.669 148.733 372.953 157.017C381.237 165.301 394.668 165.301 402.952 157.017Z" fill="white"/>
<path d="M382.434 128.744C383.758 123.134 380.283 117.513 374.673 116.189C369.063 114.865 363.442 118.339 362.117 123.949C360.793 129.56 364.268 135.181 369.878 136.505C375.488 137.829 381.109 134.355 382.434 128.744Z" fill="#F0F0F0"/>
<path d="M341.745 279.137H330.414V394.646H341.745V279.137Z" fill="#F0F0F0"/>
<path d="M448.242 272.228H327.659V279.137H448.242V272.228Z" fill="#F0F0F0"/>
<path d="M440.861 394.646H335.028V402.402H440.861V394.646Z" fill="#F0F0F0"/>
<path d="M445.487 279.137H341.744V394.646H445.487V279.137Z" fill="#FAFAFA"/>
<path d="M351.191 327.445H436.029V292.002H351.191V327.445Z" fill="#F0F0F0"/>
<path d="M351.191 379.57H436.029V344.128H351.191V379.57Z" fill="#F0F0F0"/>
<path d="M403.28 289.913H383.94C382.726 289.913 381.741 290.897 381.741 292.111V293.223C381.741 294.437 382.726 295.421 383.94 295.421H403.28C404.494 295.421 405.479 294.437 405.479 293.223V292.111C405.479 290.897 404.494 289.913 403.28 289.913Z" fill="#FAFAFA"/>
<path d="M403.28 342.05H383.94C382.726 342.05 381.741 343.034 381.741 344.248V345.36C381.741 346.574 382.726 347.558 383.94 347.558H403.28C404.494 347.558 405.479 346.574 405.479 345.36V344.248C405.479 343.034 404.494 342.05 403.28 342.05Z" fill="#FAFAFA"/>
<path d="M139.417 402.053C153.615 399.748 163.256 386.37 160.952 372.172C158.647 357.973 145.269 348.332 131.071 350.637C116.872 352.941 107.231 366.319 109.536 380.518C111.84 394.716 125.218 404.357 139.417 402.053Z" fill="#EBEBEB"/>
<path d="M100.444 401.976C118.165 399.099 130.199 382.402 127.323 364.68C124.446 346.959 107.748 334.925 90.027 337.801C72.3057 340.678 60.2716 357.376 63.1482 375.097C66.0248 392.819 82.7227 404.853 100.444 401.976Z" fill="#F5F5F5"/>
<path d="M210 456.955C339.356 456.955 444.219 450.833 444.219 443.28C444.219 435.728 339.356 429.606 210 429.606C80.6445 429.606 -24.219 435.728 -24.219 443.28C-24.219 450.833 80.6445 456.955 210 456.955Z" fill="#F5F5F5"/>
<path d="M60.9447 141.091C52.9598 141.091 49.203 133.058 49.0459 132.719C48.9092 132.343 48.9189 131.93 49.073 131.56C49.2271 131.191 49.5144 130.893 49.8778 130.726C50.2413 130.559 50.6544 130.534 51.0351 130.657C51.4158 130.78 51.7363 131.042 51.933 131.39C51.933 131.499 55.1101 138.083 61.1863 137.914C61.5857 137.936 61.9621 138.108 62.2407 138.395C62.5194 138.682 62.6799 139.063 62.6906 139.463C62.7012 139.863 62.5612 140.252 62.2982 140.554C62.0352 140.855 61.6685 141.047 61.2709 141.091H60.9447Z" fill="#0172FC"/>
<path d="M165.304 29.5319C164.609 29.535 163.915 29.4906 163.226 29.3991C163.02 29.3681 162.822 29.2969 162.643 29.1894C162.464 29.0819 162.309 28.9402 162.185 28.7725C162.061 28.6048 161.971 28.4144 161.921 28.212C161.87 28.0096 161.86 27.7993 161.891 27.5931C161.922 27.3869 161.994 27.1888 162.101 27.0101C162.209 26.8314 162.35 26.6756 162.518 26.5517C162.686 26.4277 162.876 26.338 163.078 26.2877C163.281 26.2373 163.491 26.2273 163.697 26.2583C163.77 26.2583 171.042 27.2851 174.231 22.1027C174.34 21.9251 174.482 21.7705 174.651 21.648C174.819 21.5254 175.01 21.4372 175.212 21.3884C175.415 21.3396 175.625 21.3312 175.831 21.3636C176.036 21.396 176.234 21.4686 176.412 21.5773C176.589 21.6859 176.744 21.8285 176.866 21.9969C176.989 22.1653 177.077 22.3562 177.126 22.5586C177.175 22.7611 177.183 22.9712 177.151 23.177C177.118 23.3827 177.046 23.58 176.937 23.7577C173.76 28.783 168.264 29.5319 165.304 29.5319Z" fill="#0172FC"/>
<path opacity="0.6" d="M165.304 29.5319C164.609 29.535 163.915 29.4906 163.226 29.3991C163.02 29.3681 162.822 29.2969 162.643 29.1894C162.464 29.0819 162.309 28.9402 162.185 28.7725C162.061 28.6048 161.971 28.4144 161.921 28.212C161.87 28.0096 161.86 27.7993 161.891 27.5931C161.922 27.3869 161.994 27.1888 162.101 27.0101C162.209 26.8314 162.35 26.6756 162.518 26.5517C162.686 26.4277 162.876 26.338 163.078 26.2877C163.281 26.2373 163.491 26.2273 163.697 26.2583C163.77 26.2583 171.042 27.2851 174.231 22.1027C174.34 21.9251 174.482 21.7705 174.651 21.648C174.819 21.5254 175.01 21.4372 175.212 21.3884C175.415 21.3396 175.625 21.3312 175.831 21.3636C176.036 21.396 176.234 21.4686 176.412 21.5773C176.589 21.6859 176.744 21.8285 176.866 21.9969C176.989 22.1653 177.077 22.3562 177.126 22.5586C177.175 22.7611 177.183 22.9712 177.151 23.177C177.118 23.3827 177.046 23.58 176.937 23.7577C173.76 28.783 168.264 29.5319 165.304 29.5319Z" fill="white"/>
<path d="M400.417 47.664C397.357 47.5815 394.378 46.6624 391.804 45.0064C391.458 44.7677 391.221 44.4014 391.145 43.9879C391.069 43.5745 391.161 43.1478 391.399 42.8018C391.638 42.4558 392.004 42.2188 392.418 42.1429C392.831 42.067 393.258 42.1584 393.604 42.3971C393.664 42.3971 399.765 46.5043 404.899 43.2427C405.074 43.1309 405.269 43.0547 405.474 43.0184C405.679 42.9822 405.889 42.9866 406.092 43.0315C406.295 43.0764 406.487 43.1608 406.658 43.2799C406.828 43.3991 406.973 43.5506 407.085 43.7259C407.197 43.9012 407.273 44.0968 407.309 44.3016C407.346 44.5063 407.341 44.7162 407.296 44.9192C407.251 45.1223 407.167 45.3145 407.048 45.4849C406.929 45.6553 406.777 45.8006 406.602 45.9124C404.754 47.0836 402.605 47.6922 400.417 47.664Z" fill="#0172FC"/>
<path opacity="0.6" d="M400.417 47.664C397.357 47.5815 394.378 46.6624 391.804 45.0064C391.458 44.7677 391.221 44.4014 391.145 43.9879C391.069 43.5745 391.161 43.1478 391.399 42.8018C391.638 42.4558 392.004 42.2188 392.418 42.1429C392.831 42.067 393.258 42.1584 393.604 42.3971C393.664 42.3971 399.765 46.5043 404.899 43.2427C405.074 43.1309 405.269 43.0547 405.474 43.0184C405.679 42.9822 405.889 42.9866 406.092 43.0315C406.295 43.0764 406.487 43.1608 406.658 43.2799C406.828 43.3991 406.973 43.5506 407.085 43.7259C407.197 43.9012 407.273 44.0968 407.309 44.3016C407.346 44.5063 407.341 44.7162 407.296 44.9192C407.251 45.1223 407.167 45.3145 407.048 45.4849C406.929 45.6553 406.777 45.8006 406.602 45.9124C404.754 47.0836 402.605 47.6922 400.417 47.664Z" fill="white"/>
<path d="M206.147 172.438C198.742 172.438 194.707 165.263 194.526 164.937C194.322 164.568 194.273 164.134 194.39 163.73C194.507 163.325 194.779 162.984 195.148 162.78C195.516 162.577 195.95 162.528 196.355 162.645C196.759 162.762 197.101 163.034 197.304 163.402C197.304 163.499 200.928 169.829 206.968 169.213C207.372 169.199 207.766 169.339 208.071 169.604C208.375 169.87 208.568 170.241 208.609 170.643C208.651 171.045 208.538 171.448 208.294 171.77C208.05 172.092 207.692 172.309 207.294 172.378C206.932 172.414 206.533 172.438 206.147 172.438Z" fill="#0172FC"/>
<path opacity="0.6" d="M206.147 172.438C198.742 172.438 194.707 165.263 194.526 164.937C194.322 164.568 194.273 164.134 194.39 163.73C194.507 163.325 194.779 162.984 195.148 162.78C195.516 162.577 195.95 162.528 196.355 162.645C196.759 162.762 197.101 163.034 197.304 163.402C197.304 163.499 200.928 169.829 206.968 169.213C207.372 169.199 207.766 169.339 208.071 169.604C208.375 169.87 208.568 170.241 208.609 170.643C208.651 171.045 208.538 171.448 208.294 171.77C208.05 172.092 207.692 172.309 207.294 172.378C206.932 172.414 206.533 172.438 206.147 172.438Z" fill="white"/>
<path d="M3.43216 204.704C3.04746 204.701 2.67713 204.558 2.39041 204.301C2.10369 204.045 1.92024 203.692 1.87434 203.31C1.82845 202.928 1.92326 202.543 2.14105 202.226C2.35885 201.909 2.68471 201.682 3.05768 201.587C3.13016 201.587 10.2211 199.715 11.1875 193.699C11.2208 193.494 11.2943 193.297 11.4037 193.12C11.5131 192.943 11.6563 192.789 11.8251 192.667C11.9939 192.546 12.185 192.458 12.3876 192.41C12.5901 192.363 12.8001 192.355 13.0056 192.388C13.211 192.422 13.4078 192.495 13.5849 192.605C13.7619 192.714 13.9157 192.857 14.0374 193.026C14.1591 193.195 14.2464 193.386 14.2942 193.589C14.3421 193.791 14.3496 194.001 14.3162 194.206C13.0237 202.312 4.1932 204.571 3.81872 204.668C3.69127 204.692 3.56186 204.704 3.43216 204.704Z" fill="#0172FC"/>
<path opacity="0.6" d="M3.43216 204.704C3.04746 204.701 2.67713 204.558 2.39041 204.301C2.10369 204.045 1.92024 203.692 1.87434 203.31C1.82845 202.928 1.92326 202.543 2.14105 202.226C2.35885 201.909 2.68471 201.682 3.05768 201.587C3.13016 201.587 10.2211 199.715 11.1875 193.699C11.2208 193.494 11.2943 193.297 11.4037 193.12C11.5131 192.943 11.6563 192.789 11.8251 192.667C11.9939 192.546 12.185 192.458 12.3876 192.41C12.5901 192.363 12.8001 192.355 13.0056 192.388C13.211 192.422 13.4078 192.495 13.5849 192.605C13.7619 192.714 13.9157 192.857 14.0374 193.026C14.1591 193.195 14.2464 193.386 14.2942 193.589C14.3421 193.791 14.3496 194.001 14.3162 194.206C13.0237 202.312 4.1932 204.571 3.81872 204.668C3.69127 204.692 3.56186 204.704 3.43216 204.704Z" fill="black"/>
<path d="M356.168 94.5948C355.773 94.6083 355.387 94.4734 355.086 94.2166C354.785 93.9598 354.592 93.5997 354.543 93.2073C354.495 92.8148 354.595 92.4185 354.824 92.0962C355.053 91.7739 355.395 91.5491 355.781 91.4661C355.854 91.4661 362.945 89.6057 363.911 83.5899C363.931 83.3721 363.995 83.1608 364.101 82.969C364.206 82.7772 364.349 82.6091 364.522 82.475C364.694 82.341 364.893 82.2439 365.105 82.1899C365.317 82.1358 365.537 82.1259 365.753 82.1608C365.969 82.1957 366.176 82.2746 366.36 82.3926C366.544 82.5106 366.702 82.6652 366.823 82.8469C366.945 83.0285 367.028 83.2332 367.068 83.4483C367.107 83.6634 367.102 83.8843 367.052 84.0973C365.747 92.2029 356.917 94.4619 356.542 94.5465C356.42 94.5803 356.294 94.5966 356.168 94.5948Z" fill="#0172FC"/>
<path opacity="0.6" d="M356.168 94.5948C355.773 94.6083 355.387 94.4734 355.086 94.2166C354.785 93.9598 354.592 93.5997 354.543 93.2073C354.495 92.8148 354.595 92.4185 354.824 92.0962C355.053 91.7739 355.395 91.5491 355.781 91.4661C355.854 91.4661 362.945 89.6057 363.911 83.5899C363.931 83.3721 363.995 83.1608 364.101 82.969C364.206 82.7772 364.349 82.6091 364.522 82.475C364.694 82.341 364.893 82.2439 365.105 82.1899C365.317 82.1358 365.537 82.1259 365.753 82.1608C365.969 82.1957 366.176 82.2746 366.36 82.3926C366.544 82.5106 366.702 82.6652 366.823 82.8469C366.945 83.0285 367.028 83.2332 367.068 83.4483C367.107 83.6634 367.102 83.8843 367.052 84.0973C365.747 92.2029 356.917 94.4619 356.542 94.5465C356.42 94.5803 356.294 94.5966 356.168 94.5948Z" fill="black"/>
<path d="M421.074 154.826H420.808C420.422 154.753 411.458 153.11 409.61 145.162C409.562 144.957 409.555 144.745 409.59 144.537C409.625 144.33 409.701 144.132 409.813 143.954C409.926 143.776 410.073 143.623 410.245 143.502C410.418 143.382 410.612 143.297 410.818 143.253C411.023 143.207 411.234 143.201 411.441 143.237C411.648 143.272 411.846 143.349 412.023 143.461C412.2 143.573 412.354 143.719 412.475 143.891C412.595 144.062 412.681 144.256 412.727 144.461C414.104 150.38 421.303 151.709 421.376 151.709C421.756 151.79 422.094 152.008 422.325 152.321C422.556 152.634 422.665 153.021 422.631 153.408C422.597 153.796 422.422 154.158 422.14 154.425C421.857 154.693 421.487 154.848 421.098 154.862L421.074 154.826Z" fill="#0172FC"/>
<path d="M392.758 213.063C389.992 213.107 387.301 212.16 385.172 210.394C384.994 210.267 384.845 210.105 384.733 209.917C384.621 209.73 384.549 209.521 384.522 209.305C384.494 209.088 384.512 208.868 384.574 208.659C384.635 208.45 384.74 208.255 384.88 208.088C385.02 207.921 385.194 207.785 385.389 207.688C385.585 207.591 385.799 207.536 386.016 207.525C386.234 207.515 386.452 207.55 386.656 207.628C386.86 207.705 387.046 207.825 387.201 207.978C391.876 211.867 398.436 208.606 398.508 208.57C398.883 208.377 399.319 208.342 399.72 208.471C400.121 208.6 400.454 208.883 400.646 209.258C400.839 209.633 400.874 210.069 400.745 210.47C400.616 210.871 400.333 211.204 399.958 211.396C397.707 212.467 395.25 213.036 392.758 213.063Z" fill="#0172FC"/>
<path d="M318.72 14.8064C318.445 14.8085 318.174 14.7376 317.935 14.601C317.609 14.4198 309.721 9.8536 310.687 1.6996C310.735 1.2815 310.947 0.899613 311.277 0.637955C311.606 0.376297 312.027 0.256304 312.445 0.304361C312.863 0.352419 313.245 0.564593 313.506 0.894214C313.768 1.22384 313.888 1.6439 313.84 2.06199C313.151 8.10199 319.481 11.8106 319.542 11.8468C319.849 12.0206 320.09 12.2923 320.225 12.6187C320.36 12.9451 320.382 13.3073 320.288 13.6477C320.193 13.9881 319.988 14.2871 319.704 14.4971C319.42 14.7071 319.073 14.816 318.72 14.8064Z" fill="#0172FC"/>
<path d="M3.17839 21.2451C2.97057 21.2538 2.76308 21.2215 2.56774 21.15C2.37241 21.0786 2.19306 20.9693 2.03994 20.8285C1.88683 20.6878 1.76294 20.5182 1.67536 20.3295C1.58777 20.1409 1.5382 19.9368 1.52947 19.729C1.52075 19.5212 1.55303 19.3137 1.6245 19.1184C1.69597 18.923 1.80521 18.7437 1.94598 18.5906C2.08676 18.4375 2.25632 18.3136 2.44497 18.226C2.63363 18.1384 2.83769 18.0888 3.04551 18.0801C9.08551 17.5486 11.5015 10.6147 11.5015 10.5422C11.6418 10.1567 11.9263 9.84075 12.2951 9.66098C12.6638 9.48121 13.088 9.45167 13.4781 9.57857C13.8682 9.70547 14.1938 9.97891 14.3862 10.3412C14.5786 10.7035 14.6228 11.1264 14.5094 11.5207C14.4007 11.8951 11.5015 20.5323 3.32335 21.1847L3.17839 21.2451Z" fill="#0172FC"/>
<path d="M121.043 107.046C116.754 109.051 112.973 118.691 114.205 132.534C115.438 146.378 86.7596 136.666 82.8578 152.176C75.8151 180.25 123.036 197.126 143.161 180.25C155.616 169.813 167.321 135.409 165.606 116.637C163.77 96.4515 132.458 82.9098 121.043 107.046Z" fill="#263238"/>
<path d="M166.355 142.464C166.886 142.307 167.659 142.078 168.324 141.86L170.402 141.16C171.791 140.676 173.168 140.145 174.533 139.577C177.253 138.461 179.906 137.19 182.482 135.772C187.528 133.079 192.069 129.532 195.902 125.286C199.321 121.228 201.773 115.695 203.694 110.017C204.673 107.166 205.494 104.231 206.195 101.247C206.895 98.2635 207.56 95.2072 208.067 92.2718L212.996 92.5738C213.004 99.1065 212.295 105.62 210.882 111.998C210.163 115.267 209.189 118.474 207.97 121.59C206.707 124.879 205.013 127.987 202.933 130.831C198.678 136.287 193.402 140.861 187.398 144.3C184.505 146.01 181.503 147.528 178.411 148.842C176.864 149.495 175.306 150.05 173.711 150.642C172.926 150.92 172.129 151.186 171.295 151.428C170.462 151.669 169.725 151.899 168.734 152.14L166.355 142.464Z" fill="#FFBE9D"/>
<path d="M212.972 94.2287L215.025 86.8479L206.871 87.476C206.871 87.476 206.291 92.308 209.106 95.2193L212.972 94.2287Z" fill="#FFBE9D"/>
<path d="M216.245 78.259L208.804 80.2039L206.871 87.476L215.025 86.8479L216.245 78.259Z" fill="#FFBE9D"/>
<path d="M157.126 144.349C160.883 140.93 170.414 138.309 170.414 138.309L180.863 154.013C180.863 154.013 168.94 161.973 163.879 160.125C158.612 158.289 153.623 147.526 157.126 144.349Z" fill="#0172FC"/>
<path d="M122.71 367.72L129.221 374.871L147.909 361.559L141.398 354.408L122.71 367.72Z" fill="#FFBE9D"/>
<path d="M85.9624 395.975L94.6962 400.312L107.537 381.479L98.8034 377.142L85.9624 395.975Z" fill="#FFBE9D"/>
<path d="M96.0855 399.237L89.3448 390.599C89.2314 390.449 89.067 390.345 88.8823 390.307C88.6977 390.269 88.5056 390.3 88.3422 390.394L80.7439 394.743C80.5558 394.858 80.3943 395.011 80.27 395.193C80.1456 395.375 80.0612 395.581 80.0224 395.798C79.9836 396.015 79.9912 396.238 80.0448 396.451C80.0984 396.665 80.1966 396.865 80.3332 397.038C82.7492 400.01 84.0417 401.326 87.0134 405.132C88.8254 407.463 92.5219 412.899 95.0345 416.124C97.5471 419.35 100.881 417.043 100.12 415.472C96.7136 408.429 96.4962 404.25 96.617 400.892C96.6413 400.294 96.4529 399.708 96.0855 399.237Z" fill="#263238"/>
<path d="M131.166 375.004L126.72 364.325C126.642 364.134 126.502 363.975 126.322 363.872C126.143 363.769 125.935 363.729 125.73 363.758L116.307 364.966C116.083 364.99 115.868 365.066 115.679 365.19C115.49 365.313 115.333 365.479 115.221 365.675C115.109 365.871 115.045 366.09 115.035 366.316C115.024 366.541 115.067 366.766 115.16 366.971C116.779 370.68 117.757 372.407 119.714 377.106C120.922 379.993 123.725 387.579 125.379 391.602C127.034 395.625 131.287 394.67 130.973 392.907C129.559 385.006 130.042 379.909 131.214 376.804C131.325 376.516 131.378 376.208 131.37 375.899C131.361 375.59 131.292 375.286 131.166 375.004Z" fill="#263238"/>
<path opacity="0.2" d="M147.897 361.559L138.269 368.421L130.985 361.825L141.385 354.408L147.897 361.559Z" fill="black"/>
<path opacity="0.2" d="M98.8033 377.142L107.537 381.479L100.905 391.191L92.1714 386.843L98.8033 377.142Z" fill="black"/>
<path d="M170.281 145.569C170.281 145.569 170.571 145.134 165.28 202.852L125.778 205.618C125.319 189.504 126.527 178.124 119.001 145.013C124.551 143.895 130.175 143.185 135.829 142.887C141.815 142.488 147.822 142.52 153.804 142.984C161.523 143.721 170.281 145.569 170.281 145.569Z" fill="#0172FC"/>
<path d="M121.973 154.58C119.038 153.227 116.465 151.778 113.795 150.244C111.125 148.71 108.601 147.067 106.088 145.327C100.974 141.855 96.2188 137.881 91.8939 133.465L90.2993 131.737L89.8886 131.302C89.6532 131.032 89.4314 130.749 89.2242 130.457C88.8507 129.924 88.5271 129.358 88.2578 128.765C87.458 126.878 87.0471 124.848 87.0498 122.798C87.0767 119.535 87.515 116.288 88.3545 113.134C89.888 107.232 92.017 101.501 94.7085 96.0287L99.3231 97.8165C98.6104 100.559 97.9339 103.41 97.3299 106.2C96.7259 108.99 96.2185 111.805 95.8803 114.559C95.4881 117.149 95.3828 119.774 95.5662 122.387C95.6266 123.292 95.856 124.177 96.2427 124.996C96.2427 125.081 96.3635 125.178 96.3997 125.19L96.7742 125.54L98.2601 126.953C102.407 130.709 106.851 134.123 111.548 137.161C113.904 138.719 116.38 140.145 118.796 141.582C121.212 143.02 123.809 144.385 126.165 145.581L121.973 154.58Z" fill="#FFBE9D"/>
<path d="M134.548 147.224C130.066 140.978 121.26 141.075 121.26 141.075L110.642 156.779C110.642 156.779 122.492 164.848 127.554 163.048C132.917 161.14 137.314 151.065 134.548 147.224Z" fill="#0172FC"/>
<path d="M153.804 142.984L135.829 142.887C133.075 143.998 131.48 151.162 149.721 157.226C162.369 150.038 155.64 143.648 153.804 142.984Z" fill="white"/>
<path d="M137.713 122.653C138.813 128.439 139.888 139.046 135.829 142.887C135.829 142.887 137.399 148.77 149.721 157.226C158.358 148.565 153.804 142.984 153.804 142.984C147.365 141.401 147.559 136.617 148.706 132.112L137.713 122.653Z" fill="#FFBE9D"/>
<path d="M174.968 180.105H174.775C174.138 180.053 173.547 179.75 173.133 179.264C172.719 178.777 172.514 178.146 172.564 177.508C172.999 172.121 168.94 168.05 164.277 163.326C158.926 157.927 152.85 151.802 152.608 142.271C152.592 141.63 152.831 141.009 153.273 140.545C153.715 140.08 154.323 139.811 154.964 139.794C155.604 139.778 156.225 140.018 156.69 140.459C157.154 140.901 157.424 141.509 157.44 142.15C157.633 149.761 162.755 154.931 167.708 159.932C172.661 164.933 177.988 170.296 177.372 177.895C177.321 178.497 177.045 179.059 176.6 179.468C176.155 179.877 175.573 180.105 174.968 180.105Z" fill="#263238"/>
<path d="M139.658 192.33C139.462 192.33 139.268 192.305 139.078 192.258C138.457 192.104 137.922 191.709 137.591 191.161C137.261 190.613 137.161 189.956 137.314 189.335C139.646 179.864 136.59 172.423 133.352 164.595C130.453 157.564 127.457 150.292 128.907 141.788C129.032 141.172 129.392 140.629 129.911 140.274C130.429 139.92 131.066 139.781 131.685 139.888C132.304 139.995 132.858 140.339 133.228 140.847C133.597 141.355 133.755 141.987 133.666 142.609C132.458 149.736 135.055 156.066 137.81 162.759C141.047 170.598 144.707 179.489 142.001 190.543C141.863 191.057 141.558 191.512 141.134 191.835C140.71 192.159 140.191 192.333 139.658 192.33Z" fill="#263238"/>
<path opacity="0.2" d="M146.435 130.118L141.603 130.686C141.837 131.987 142.304 133.235 142.98 134.371C143.934 135.808 146.061 136.436 148.162 136.497C148.16 135.002 148.363 133.514 148.766 132.075L146.435 130.118Z" fill="black"/>
<path d="M127.023 116.83C130.562 125.842 131.855 129.732 138.028 132.945C147.305 137.777 157.597 131.483 156.824 121.602C156.136 112.699 150.47 99.4594 140.287 98.7104C138.044 98.5356 135.794 98.9367 133.75 99.8756C131.706 100.814 129.935 102.26 128.606 104.075C127.278 105.89 126.435 108.015 126.158 110.247C125.881 112.479 126.178 114.745 127.023 116.83Z" fill="#FFBE9D"/>
<path d="M136.723 97.4057C143.596 101.634 137.713 126.506 126.08 125.19C114.447 123.873 126.563 91.1604 136.723 97.4057Z" fill="#263238"/>
<path d="M136.469 97.5024C131.287 100.945 134.826 106.937 152.294 103.385C152.294 103.373 145.07 91.7765 136.469 97.5024Z" fill="#263238"/>
<path d="M128.279 125.588C129.043 127.296 130.449 128.632 132.193 129.309C134.524 130.179 135.889 128.101 135.43 125.842C135.007 123.776 133.292 120.817 130.876 120.938C130.348 120.973 129.837 121.14 129.39 121.423C128.943 121.706 128.574 122.096 128.316 122.558C128.058 123.02 127.919 123.54 127.913 124.069C127.906 124.598 128.032 125.12 128.279 125.588Z" fill="#FFBE9D"/>
<path d="M165.304 202.852C165.304 202.852 186.444 271.865 188.147 301.558C189.911 332.446 144.043 369.097 144.043 369.097L132.627 356.57C132.627 356.57 169.894 324.92 164.784 301.993C157.718 270.391 136.312 204.882 136.312 204.882L165.304 202.852Z" fill="#263238"/>
<path opacity="0.2" d="M152.125 225.442C150.192 219.402 145.891 223.461 144.394 229.863C147.377 239.527 150.832 250.834 154.118 262.153C155.386 252.126 155.906 237.28 152.125 225.442Z" fill="black"/>
<path d="M129.535 355.966L144.019 370.909L150.204 367.49L134.898 350.832L129.535 355.966Z" fill="#0172FC"/>
<path d="M154.855 203.589C154.855 203.589 148.815 271.237 142.775 308.915C137.882 339.356 104.65 389.077 104.65 389.077L92.4736 383.412C92.4736 383.412 114.81 330.175 118.289 309.482C129.451 243.248 114.375 224.137 125.79 205.594L154.855 203.589Z" fill="#263238"/>
<path d="M91.6162 383.545L105.351 390.285L109.857 384.692L93.7906 377.118L91.6162 383.545Z" fill="#0172FC"/>
<path d="M125.029 203.347L123.495 206.971C123.374 207.249 123.713 207.515 124.172 207.479L165.606 204.58C165.956 204.58 166.246 204.362 166.246 204.133L166.355 200.509C166.355 200.267 166.041 200.086 165.654 200.11L125.645 202.913C125.512 202.917 125.382 202.961 125.273 203.038C125.163 203.115 125.079 203.223 125.029 203.347Z" fill="white"/>
<path d="M130.707 207.43L129.644 207.503C129.426 207.503 129.257 207.418 129.257 207.285L129.439 202.659C129.439 202.526 129.632 202.393 129.837 202.381L130.912 202.309C131.13 202.309 131.299 202.393 131.287 202.526L131.106 207.153C131.106 207.31 130.924 207.43 130.707 207.43Z" fill="#263238"/>
<path d="M162.622 205.208L161.547 205.28C161.33 205.28 161.161 205.196 161.173 205.063L161.354 200.436C161.354 200.303 161.535 200.182 161.753 200.158L162.816 200.086C163.033 200.086 163.202 200.17 163.202 200.303L163.021 204.942C163.009 205.075 162.888 205.196 162.622 205.208Z" fill="#263238"/>
<path d="M146.664 206.331L145.589 206.404C145.384 206.404 145.215 206.319 145.215 206.186L145.396 201.547C145.396 201.415 145.577 201.294 145.795 201.282L146.87 201.209C147.075 201.209 147.244 201.294 147.244 201.427L147.063 206.053C147.063 206.222 146.882 206.307 146.664 206.331Z" fill="#263238"/>
<path d="M141.579 113.448C140.999 113.641 140.757 114.511 141.047 115.405L143.161 114.728C142.871 113.835 142.159 113.206 141.579 113.448Z" fill="#263238"/>
<path d="M150.808 110.525C150.216 110.718 149.974 111.6 150.264 112.494L152.39 111.805C152.016 110.911 151.327 110.343 150.808 110.525Z" fill="#263238"/>
<path d="M150.506 110.658L152.451 109.353C152.451 109.353 151.895 111.382 150.506 110.658Z" fill="#263238"/>
<path d="M148.392 114.173C149.607 115.665 151.021 116.982 152.596 118.087C152.304 118.483 151.929 118.811 151.497 119.046C151.065 119.282 150.587 119.421 150.095 119.452L148.392 114.173Z" fill="#263238"/>
<path d="M148.537 123.209C148.572 123.178 148.598 123.138 148.611 123.093C148.624 123.048 148.623 123 148.61 122.955C148.59 122.897 148.549 122.85 148.495 122.823C148.44 122.795 148.377 122.791 148.32 122.81C147.396 123.13 146.409 123.229 145.44 123.099C144.471 122.969 143.546 122.613 142.739 122.061C142.717 122.039 142.692 122.022 142.664 122.011C142.636 121.999 142.606 121.993 142.576 121.993C142.545 121.993 142.515 121.999 142.487 122.011C142.459 122.022 142.434 122.039 142.412 122.061C142.389 122.081 142.371 122.107 142.358 122.135C142.345 122.163 142.339 122.193 142.339 122.224C142.339 122.255 142.345 122.285 142.358 122.314C142.371 122.342 142.389 122.367 142.412 122.387C143.276 123.006 144.277 123.406 145.328 123.553C146.38 123.7 147.452 123.59 148.452 123.233L148.537 123.209Z" fill="#263238"/>
<path d="M138.523 112.904C138.584 112.853 138.63 112.787 138.656 112.711C138.822 112.149 139.122 111.635 139.53 111.215C139.938 110.794 140.442 110.478 140.999 110.295C141.058 110.281 141.113 110.255 141.162 110.22C141.211 110.184 141.252 110.139 141.283 110.087C141.315 110.036 141.336 109.978 141.345 109.919C141.354 109.859 141.352 109.798 141.337 109.739C141.323 109.681 141.297 109.625 141.262 109.577C141.226 109.528 141.181 109.487 141.13 109.455C141.078 109.424 141.021 109.403 140.961 109.394C140.901 109.384 140.84 109.387 140.782 109.401C140.081 109.622 139.444 110.007 138.923 110.524C138.402 111.04 138.012 111.675 137.786 112.373C137.748 112.488 137.757 112.614 137.811 112.723C137.865 112.831 137.96 112.914 138.076 112.953C138.148 112.986 138.227 112.999 138.306 112.991C138.385 112.982 138.46 112.952 138.523 112.904Z" fill="#263238"/>
<path d="M152.995 106.937C153.02 106.923 153.041 106.902 153.055 106.876C153.094 106.829 153.123 106.775 153.14 106.716C153.157 106.657 153.163 106.596 153.156 106.535C153.149 106.474 153.13 106.416 153.101 106.362C153.071 106.309 153.031 106.262 152.982 106.224C152.417 105.757 151.749 105.431 151.032 105.273C150.316 105.115 149.572 105.131 148.863 105.318C148.805 105.337 148.751 105.368 148.704 105.408C148.658 105.448 148.62 105.498 148.593 105.553C148.566 105.608 148.55 105.668 148.547 105.729C148.543 105.791 148.552 105.852 148.573 105.91C148.614 106.023 148.698 106.117 148.805 106.171C148.913 106.225 149.038 106.235 149.153 106.2C149.715 106.056 150.304 106.048 150.869 106.179C151.435 106.309 151.961 106.573 152.403 106.949C152.487 107.017 152.592 107.053 152.701 107.051C152.809 107.049 152.913 107.008 152.995 106.937Z" fill="#263238"/>
<path d="M104.602 99.5923C104.309 99.5915 104.021 99.5123 103.769 99.3627L67.0214 76.7248C66.6993 76.4875 66.4781 76.1378 66.4018 75.7451C66.3255 75.3523 66.3997 74.9452 66.6095 74.6046C66.8194 74.264 67.1496 74.0147 67.5347 73.9062C67.9198 73.7977 68.3316 73.8379 68.6884 74.0189L105.436 96.6568C105.732 96.8365 105.961 97.1085 106.088 97.431C106.215 97.7536 106.232 98.1088 106.137 98.4421C106.043 98.7754 105.841 99.0685 105.564 99.2763C105.287 99.484 104.949 99.5951 104.602 99.5923Z" fill="#0172FC"/>
<path d="M75.3441 79.2254C77.4098 79.1408 79.5359 79.0442 79.8137 77.1839C80.0916 75.3235 78.0984 74.6108 76.1897 73.9102L75.6703 73.7169C75.6703 73.5357 75.5857 73.3545 75.5374 73.1854L75.9602 72.7143C77.3132 71.2163 78.7265 69.6701 77.6272 68.1963C76.528 66.7226 74.6435 67.5923 72.7952 68.45L72.2275 68.7158C72.0704 68.6071 71.9134 68.5225 71.7443 68.4259C71.5752 68.3292 71.7443 68.0393 71.7443 67.8702C71.6476 65.8166 71.551 63.6905 69.7028 63.4127C67.8545 63.1348 67.1297 65.128 66.4291 67.0367C66.3687 67.1937 66.3083 67.3749 66.2358 67.5561L65.6922 67.689L65.2332 67.2783C63.7352 65.9132 62.189 64.5119 60.7152 65.5991C59.2415 66.6863 60.1112 68.5829 60.9689 70.4311L61.2347 70.9989C61.1294 71.1504 61.0326 71.3077 60.9448 71.47H60.3891C58.3355 71.5667 56.1973 71.6633 55.9195 73.5236C55.6416 75.3839 57.6469 76.0967 59.5435 76.7973L60.0629 76.9906C60.0629 77.1718 60.1475 77.353 60.1958 77.5221C60.0508 77.6912 59.9059 77.8603 59.773 77.9932C58.42 79.4911 57.0188 81.0253 58.106 82.5111C59.1932 83.997 61.0897 83.1031 62.938 82.2575L63.5178 81.9917L63.9889 82.2816C63.9889 82.4749 63.9889 82.6682 63.9889 82.8373C64.0856 84.8909 64.1822 87.017 66.0305 87.2948C67.8787 87.5727 68.6156 85.5795 69.3162 83.6708C69.3162 83.5259 69.437 83.3447 69.4974 83.1514C69.6812 83.1185 69.8628 83.0741 70.041 83.0185L70.5121 83.4413C71.998 84.7943 73.5442 86.2076 75.03 85.1204C76.5159 84.0332 75.622 82.1367 74.7643 80.2884C74.6918 80.1314 74.5952 79.926 74.5106 79.7207L74.8005 79.2495L75.3441 79.2254Z" fill="#0172FC"/>
<path opacity="0.7" d="M75.3441 79.2254C77.4098 79.1408 79.5359 79.0442 79.8137 77.1839C80.0916 75.3235 78.0984 74.6108 76.1897 73.9102L75.6703 73.7169C75.6703 73.5357 75.5857 73.3545 75.5374 73.1854L75.9602 72.7143C77.3132 71.2163 78.7265 69.6701 77.6272 68.1963C76.528 66.7226 74.6435 67.5923 72.7952 68.45L72.2275 68.7158C72.0704 68.6071 71.9134 68.5225 71.7443 68.4259C71.5752 68.3292 71.7443 68.0393 71.7443 67.8702C71.6476 65.8166 71.551 63.6905 69.7028 63.4127C67.8545 63.1348 67.1297 65.128 66.4291 67.0367C66.3687 67.1937 66.3083 67.3749 66.2358 67.5561L65.6922 67.689L65.2332 67.2783C63.7352 65.9132 62.189 64.5119 60.7152 65.5991C59.2415 66.6863 60.1112 68.5829 60.9689 70.4311L61.2347 70.9989C61.1294 71.1504 61.0326 71.3077 60.9448 71.47H60.3891C58.3355 71.5667 56.1973 71.6633 55.9195 73.5236C55.6416 75.3839 57.6469 76.0967 59.5435 76.7973L60.0629 76.9906C60.0629 77.1718 60.1475 77.353 60.1958 77.5221C60.0508 77.6912 59.9059 77.8603 59.773 77.9932C58.42 79.4911 57.0188 81.0253 58.106 82.5111C59.1932 83.997 61.0897 83.1031 62.938 82.2575L63.5178 81.9917L63.9889 82.2816C63.9889 82.4749 63.9889 82.6682 63.9889 82.8373C64.0856 84.8909 64.1822 87.017 66.0305 87.2948C67.8787 87.5727 68.6156 85.5795 69.3162 83.6708C69.3162 83.5259 69.437 83.3447 69.4974 83.1514C69.6812 83.1185 69.8628 83.0741 70.041 83.0185L70.5121 83.4413C71.998 84.7943 73.5442 86.2076 75.03 85.1204C76.5159 84.0332 75.622 82.1367 74.7643 80.2884C74.6918 80.1314 74.5952 79.926 74.5106 79.7207L74.8005 79.2495L75.3441 79.2254Z" fill="white"/>
<path d="M93.6333 99.9788L92.1233 90.3148L101.981 95.1468C101.609 96.7737 100.769 98.2562 99.5646 99.4111C99.0688 99.9756 98.4236 100.388 97.7033 100.602C96.9831 100.816 96.2171 100.822 95.4936 100.619L93.6333 99.9788Z" fill="#FFBE9D"/>
<path d="M97.6559 85.5795L102.705 90.0128L101.981 95.0864L92.1233 90.3027L97.6559 85.5795Z" fill="#FFBE9D"/>
<path d="M99.2503 403.863C99.3528 403.79 99.4497 403.709 99.5403 403.622C99.6438 403.527 99.7199 403.407 99.7603 403.273C99.8007 403.139 99.804 402.996 99.7698 402.861C99.4799 401.653 96.1458 400.445 95.7713 400.36C95.73 400.342 95.6839 400.339 95.6403 400.349C95.5966 400.36 95.5578 400.385 95.5297 400.42C95.5048 400.458 95.4915 400.502 95.4915 400.547C95.4915 400.592 95.5048 400.637 95.5297 400.674C96.0733 401.882 97.1605 403.863 98.3806 404.069C98.6861 404.114 98.9973 404.04 99.2503 403.863ZM96.1458 400.988C97.4625 401.484 99.1658 402.329 99.3228 402.969C99.3341 403.03 99.3288 403.092 99.3076 403.149C99.2863 403.207 99.2498 403.257 99.202 403.296C99.11 403.413 98.9895 403.504 98.852 403.561C98.7145 403.618 98.5647 403.639 98.4168 403.622C97.7524 403.501 96.931 402.534 96.1458 400.988Z" fill="#0172FC"/>
<path d="M99.8666 400.638C99.9455 400.59 100.015 400.529 100.072 400.457C100.19 400.314 100.254 400.134 100.254 399.949C100.254 399.764 100.19 399.585 100.072 399.442C99.9822 399.289 99.8599 399.158 99.7138 399.058C99.5676 398.958 99.4013 398.891 99.2264 398.862C97.8372 398.608 95.6024 400.324 95.5178 400.396C95.4865 400.422 95.4624 400.456 95.4476 400.494C95.4328 400.532 95.4279 400.573 95.4333 400.614C95.44 400.652 95.4555 400.688 95.4786 400.72C95.5016 400.751 95.5316 400.777 95.5662 400.795C96.9713 401.266 98.4996 401.21 99.8666 400.638ZM96.2426 400.457C97.0699 399.782 98.0884 399.385 99.1539 399.321C99.265 399.335 99.3713 399.375 99.4637 399.438C99.5562 399.501 99.6322 399.585 99.6854 399.684C99.8425 399.937 99.77 400.07 99.6854 400.155C99.2506 400.674 97.2694 400.771 96.1702 400.493L96.2426 400.457Z" fill="#0172FC"/>
<path d="M131.383 380.476C131.629 381.232 132.107 381.892 132.748 382.361C132.929 382.468 133.131 382.533 133.34 382.551C133.549 382.57 133.76 382.542 133.956 382.47C134.074 382.436 134.18 382.372 134.263 382.282C134.346 382.193 134.403 382.082 134.427 381.962C134.681 380.754 131.516 377.77 130.876 377.13C130.836 377.104 130.79 377.09 130.743 377.09C130.696 377.09 130.65 377.104 130.61 377.13C130.568 377.153 130.534 377.189 130.515 377.233C130.495 377.276 130.49 377.325 130.501 377.372C130.68 378.436 130.975 379.477 131.383 380.476ZM133.896 381.382C133.964 381.521 133.994 381.675 133.98 381.829C133.98 381.89 133.98 381.95 133.811 381.998C133.67 382.053 133.519 382.074 133.368 382.062C133.218 382.049 133.072 382.003 132.942 381.926C132.205 381.491 131.528 380.042 131.093 377.988C132.194 378.971 133.138 380.116 133.896 381.382Z" fill="#0172FC"/>
<path d="M130.55 377.456C130.546 377.48 130.546 377.505 130.55 377.529C131.54 378.531 134.5 380.15 135.454 379.595C135.66 379.474 135.877 379.208 135.708 378.628C135.092 376.405 130.876 377.106 130.671 377.142C130.628 377.148 130.589 377.166 130.557 377.194C130.524 377.221 130.501 377.258 130.49 377.299C130.49 377.357 130.512 377.413 130.55 377.456ZM135.261 378.604L135.322 378.749C135.322 378.991 135.322 379.135 135.322 379.196C134.766 379.51 132.531 378.471 131.347 377.529C132.338 377.42 134.73 377.324 135.261 378.604Z" fill="#0172FC"/>
<path d="M141.337 113.581L143.282 112.264C143.282 112.264 142.726 114.306 141.337 113.581Z" fill="#263238"/>
<path d="M299.259 430.029L289.897 430.041L287.372 408.369L296.734 408.357L299.259 430.029Z" fill="#FFBE9D"/>
<path d="M379.845 389.802L372.754 395.927L356.699 381.153L363.778 375.028L379.845 389.802Z" fill="#FFBE9D"/>
<path d="M371.377 395.685L380.002 388.22C380.143 388.103 380.32 388.039 380.503 388.039C380.686 388.039 380.863 388.103 381.004 388.22L387.576 393.462C387.736 393.597 387.865 393.766 387.953 393.956C388.041 394.145 388.087 394.352 388.087 394.562C388.087 394.771 388.041 394.978 387.953 395.168C387.865 395.358 387.736 395.526 387.576 395.661C384.761 398.017 382.599 399.599 379.12 402.619C376.97 404.479 370.664 410.326 367.692 412.899C364.721 415.472 361.906 412.754 362.86 411.425C367.33 405.482 370.108 400.215 370.543 397.086C370.65 396.537 370.945 396.042 371.377 395.685Z" fill="#263238"/>
<path d="M289.957 428.953H300.189C300.375 428.954 300.555 429.018 300.7 429.134C300.844 429.251 300.945 429.413 300.986 429.594L302.847 437.917C302.892 438.117 302.892 438.326 302.846 438.526C302.799 438.727 302.708 438.914 302.579 439.074C302.45 439.235 302.287 439.364 302.101 439.452C301.915 439.54 301.712 439.585 301.506 439.584C297.809 439.523 292.482 439.318 287.843 439.318C282.432 439.318 279.255 439.463 272.9 439.475C269.059 439.475 267.984 435.597 269.59 435.247C276.911 433.628 281.381 433.616 287.71 429.702C288.375 429.249 289.153 428.989 289.957 428.953Z" fill="#263238"/>
<path d="M259.528 160.934C257.643 160.21 256.025 159.545 254.334 158.772C252.642 157.999 251.012 157.238 249.369 156.429C246.091 154.818 242.87 153.022 239.705 151.041C236.519 149.089 233.457 146.943 230.536 144.614C229.799 144.01 229.05 143.406 228.325 142.79L226.175 140.821C225.462 140.169 224.786 139.42 224.097 138.719C223.747 138.333 223.445 138.055 223.046 137.596C222.648 137.137 222.261 136.69 221.911 136.231C220.59 134.484 219.468 132.596 218.565 130.602C217.725 128.78 217.01 126.903 216.426 124.984C215.316 121.361 214.508 117.652 214.01 113.895C213.057 106.663 212.875 99.3494 213.467 92.0785H220.497C220.981 95.3522 221.488 98.795 222.152 102.105C222.817 105.415 223.517 108.725 224.375 111.914C225.186 115.029 226.212 118.084 227.443 121.058C228.466 123.688 229.906 126.135 231.708 128.306L232.3 128.91C232.481 129.104 232.843 129.394 233.109 129.635C233.689 130.13 234.22 130.65 234.836 131.121C236.044 132.087 237.252 133.042 238.605 133.96C241.215 135.772 243.969 137.499 246.844 139.118C249.719 140.737 252.654 142.271 255.638 143.72C257.136 144.457 258.646 145.182 260.156 145.859C261.666 146.535 263.249 147.248 264.602 147.828L259.528 160.934Z" fill="#FFBE9D"/>
<path d="M261.026 168.907C255.695 165.593 250.659 161.827 245.974 157.649L249.707 138.574C256.647 140.549 263.703 142.09 270.835 143.189C282.613 144.711 269.421 173.908 261.026 168.907Z" fill="#263238"/>
<path d="M220.739 93.7214L221.404 81.7984L211.498 84.9755C211.498 84.9755 209.191 93.516 215.617 95.7629L220.739 93.7214Z" fill="#FFBE9D"/>
<path d="M220.207 75.3839L212.029 78.7905L211.498 84.9754L221.403 81.7984L220.207 75.3839Z" fill="#FFBE9D"/>
<path opacity="0.2" d="M287.384 408.369L288.677 419.543L298.039 419.531L296.746 408.357L287.384 408.369Z" fill="black"/>
<path opacity="0.2" d="M363.79 375.028L356.699 381.153L364.986 388.763L372.065 382.639L363.79 375.028Z" fill="black"/>
<path d="M306.833 142.802C306.854 142.139 306.743 141.479 306.508 140.859C306.272 140.239 305.916 139.672 305.46 139.19C305.004 138.708 304.457 138.321 303.851 138.052C303.245 137.782 302.592 137.636 301.929 137.62C275.208 137.125 257.825 144.614 256.629 145.098C256.183 145.278 255.79 145.568 255.488 145.943C255.185 146.317 254.983 146.762 254.901 147.236C253.79 153.928 250.637 181.978 266.087 225.877L315.615 218.786C314.951 211.477 305.722 177.943 306.833 142.802Z" fill="#263238"/>
<path d="M266.776 141.727C263.84 145.653 262.512 154.701 272.236 161.321C284.195 152.394 290.356 142.79 292.18 137.789C283.599 138.22 275.085 139.539 266.776 141.727Z" fill="white"/>
<path d="M264.553 145.4C263.912 145.4 263.298 145.145 262.845 144.692C262.392 144.239 262.137 143.624 262.137 142.984C262.137 140.99 263.865 139.275 265.326 138.152C270.231 134.528 279.822 131.761 291.902 135.252C292.496 135.448 292.991 135.867 293.282 136.42C293.574 136.973 293.64 137.617 293.466 138.218C293.293 138.818 292.893 139.328 292.351 139.64C291.81 139.952 291.168 140.042 290.561 139.891C276.549 135.844 267.911 141.594 266.981 143.249C266.915 143.845 266.63 144.395 266.182 144.792C265.733 145.19 265.153 145.406 264.553 145.4Z" fill="#0172FC"/>
<path d="M284.63 114.825C284.268 121.795 284.715 134.407 290.102 138.248C286.937 142.44 282.721 147.357 274.712 148.794C269.88 149.652 268.225 147.864 268.02 145.605C267.952 144.515 268.193 143.428 268.714 142.469C269.235 141.51 270.016 140.717 270.968 140.181C276.174 137.161 275.135 132.305 273.263 127.714L284.63 114.825Z" fill="#FFBE9D"/>
<path d="M263.816 200.823C263.544 200.821 263.274 200.772 263.019 200.678C262.415 200.464 261.921 200.02 261.645 199.442C261.368 198.865 261.333 198.201 261.545 197.597C261.881 196.752 262.037 195.846 262.004 194.937C261.97 194.029 261.748 193.137 261.352 192.318L261.098 191.63C260.686 190.818 260.139 190.083 259.48 189.455C258.066 188.322 257.088 186.734 256.712 184.962C256.335 183.189 256.583 181.341 257.414 179.731C257.711 179.042 257.887 178.306 257.933 177.557C257.703 176.696 257.331 175.88 256.834 175.141C255.837 173.715 255.248 172.044 255.131 170.309C255.267 168.493 255.926 166.757 257.027 165.307C257.443 164.758 257.769 164.146 257.994 163.495C258.003 162.823 257.871 162.157 257.607 161.538C257.026 160.166 256.883 158.647 257.197 157.19C257.687 155.546 258.695 154.106 260.072 153.082C260.46 152.789 260.799 152.434 261.074 152.031C261.247 151.448 261.247 150.827 261.074 150.244C260.707 148.845 260.902 147.357 261.618 146.1C262.463 144.771 262.379 144.433 262.306 144.155C262.184 143.732 262.131 143.291 262.149 142.851C262.149 142.21 262.404 141.595 262.857 141.142C263.31 140.689 263.925 140.435 264.565 140.435C265.206 140.435 265.821 140.689 266.274 141.142C266.727 141.595 266.981 142.21 266.981 142.851V142.923C267.32 144.288 267.416 145.919 265.773 148.589C265.793 148.872 265.83 149.155 265.882 149.434C266.246 150.763 266.192 152.171 265.728 153.468C265.263 154.765 264.41 155.887 263.285 156.682C262.512 157.359 262.077 157.77 261.908 158.361C261.883 158.92 261.995 159.475 262.234 159.98C262.747 161.272 262.95 162.666 262.826 164.051C262.558 165.439 261.98 166.748 261.135 167.88C260.574 168.587 260.185 169.414 259.999 170.296C260.194 171.142 260.551 171.942 261.05 172.652C261.919 173.95 262.507 175.415 262.778 176.953C262.845 178.407 262.593 179.858 262.041 181.205C261.647 182.064 261.461 183.003 261.497 183.947C261.878 184.785 262.424 185.537 263.104 186.157C264.222 187.25 265.109 188.557 265.713 189.999L265.93 190.627C267.119 193.328 267.193 196.389 266.136 199.143C265.979 199.634 265.669 200.062 265.252 200.364C264.834 200.666 264.331 200.827 263.816 200.823Z" fill="#0172FC"/>
<path d="M306.386 142.404C307.703 143.612 308.802 144.626 309.914 145.786C311.025 146.946 312.112 148.069 313.187 149.229C315.338 151.548 317.367 153.988 319.324 156.477C323.401 161.635 326.814 167.284 329.483 173.292C330.156 174.899 330.745 176.54 331.247 178.209C331.501 179.054 331.718 179.936 331.923 180.83L331.996 181.156L332.105 181.724C332.177 182.099 332.213 182.497 332.25 182.932C332.308 183.738 332.283 184.547 332.177 185.348C331.999 186.792 331.561 188.191 330.885 189.479C330.319 190.552 329.635 191.557 328.843 192.475C327.534 193.971 326.026 195.279 324.361 196.365C321.521 198.224 318.462 199.725 315.253 200.835C313.731 201.39 312.197 201.861 310.651 202.26C309.104 202.659 307.606 203.033 305.927 203.311L303.753 196.631C304.961 195.954 306.253 195.242 307.474 194.517C308.694 193.792 309.89 193.031 311.098 192.27C313.343 190.851 315.458 189.234 317.415 187.438C318.166 186.714 318.827 185.903 319.384 185.022C319.807 184.333 319.771 183.874 319.65 184.019C319.641 184.059 319.641 184.1 319.65 184.14L319.578 183.923C319.397 183.367 319.227 182.799 318.986 182.219C318.538 181.041 318.026 179.887 317.452 178.765C316.239 176.379 314.858 174.082 313.32 171.891C311.786 169.62 310.095 167.397 308.307 165.223C306.519 163.048 304.683 160.91 302.738 158.796C301.784 157.745 300.805 156.719 299.815 155.704C298.824 154.689 297.785 153.626 296.904 152.78L306.386 142.404Z" fill="#FFBE9D"/>
<path d="M303.27 137.825C308.73 138.635 317.294 152.321 317.294 152.321L303.39 170.961C303.39 170.961 295.973 163.894 293.811 157.673C289.728 145.738 292.542 136.255 303.27 137.825Z" fill="#263238"/>
<path d="M295.985 184.744C295.566 184.74 295.155 184.626 294.793 184.414C294.43 184.202 294.13 183.9 293.92 183.536C293.089 181.912 292.729 180.087 292.881 178.269C292.945 177.519 292.88 176.763 292.688 176.034C292.204 175.284 291.595 174.622 290.888 174.078C289.497 173.043 288.415 171.648 287.759 170.043C287.311 168.279 287.391 166.422 287.989 164.703C288.208 164.049 288.326 163.364 288.339 162.674C288.035 161.845 287.594 161.073 287.034 160.391C285.79 159.112 285.061 157.418 284.987 155.635C284.914 153.852 285.501 152.104 286.636 150.727C286.963 150.235 287.227 149.703 287.421 149.144C287.358 148.228 287.137 147.329 286.768 146.487C286.078 145.062 285.842 143.46 286.092 141.896C286.543 139.673 287.664 137.641 289.305 136.074L289.462 135.917C289.913 135.489 290.512 135.251 291.134 135.253C291.756 135.255 292.353 135.496 292.801 135.927C293.249 136.358 293.514 136.946 293.54 137.567C293.566 138.188 293.352 138.796 292.941 139.263L292.663 139.541C291.676 140.493 291.013 141.731 290.767 143.08C290.898 143.686 291.08 144.28 291.311 144.856C291.944 146.319 292.261 147.9 292.241 149.495C292.053 150.817 291.561 152.079 290.803 153.179C290.28 153.892 289.936 154.721 289.801 155.595C290.085 156.343 290.493 157.037 291.009 157.649C291.985 158.861 292.697 160.264 293.098 161.768C293.283 163.169 293.147 164.595 292.7 165.936C292.394 166.786 292.282 167.694 292.374 168.593C292.832 169.334 293.427 169.981 294.125 170.502C295.354 171.468 296.369 172.677 297.109 174.053C297.631 175.411 297.846 176.867 297.737 178.318C297.647 179.258 297.767 180.207 298.087 181.096C298.415 181.646 298.511 182.303 298.355 182.923C298.199 183.544 297.803 184.077 297.254 184.406C296.87 184.634 296.431 184.751 295.985 184.744Z" fill="#0172FC"/>
<path opacity="0.2" d="M279.991 120.08L273.275 127.702C273.781 128.873 274.185 130.086 274.483 131.326C277.31 130.493 280.825 126.76 280.704 123.692C280.685 122.455 280.444 121.231 279.991 120.08Z" fill="black"/>
<path d="M265.87 95.0018C262.886 100.196 264.795 107.589 264.795 107.589C265.595 108.11 266.52 108.406 267.474 108.449C268.428 108.491 269.375 108.278 270.219 107.831L269.373 94.0596L265.87 95.0018Z" fill="#263238"/>
<path d="M289.39 108.193C287.107 117.205 286.225 122.593 280.74 126.398C272.49 132.124 262.029 125.818 261.582 116.311C261.171 107.746 264.976 94.4582 274.592 92.5254C276.707 92.0873 278.899 92.1976 280.959 92.8459C283.02 93.4942 284.88 94.659 286.363 96.2293C287.847 97.7997 288.903 99.7234 289.433 101.818C289.963 103.912 289.948 106.106 289.39 108.193Z" fill="#FFBE9D"/>
<path d="M263.08 118.679H262.753L242.278 114.342C241.164 114.106 240.19 113.438 239.57 112.485C238.949 111.531 238.732 110.37 238.968 109.256C239.203 108.143 239.871 107.169 240.825 106.548C241.779 105.927 242.94 105.711 244.054 105.946C244.256 105.989 244.448 106.072 244.619 106.19C244.789 106.307 244.935 106.457 245.047 106.631C245.159 106.805 245.236 107 245.273 107.204C245.31 107.407 245.306 107.616 245.262 107.819C245.172 108.226 244.925 108.582 244.574 108.808C244.223 109.034 243.797 109.113 243.389 109.027C243.245 108.992 243.095 108.988 242.95 109.015C242.804 109.042 242.665 109.099 242.544 109.184C242.421 109.263 242.315 109.366 242.232 109.486C242.149 109.606 242.091 109.742 242.06 109.884C242.007 110.176 242.063 110.477 242.217 110.73C242.385 110.971 242.634 111.142 242.918 111.213L263.394 115.55C263.774 115.633 264.111 115.853 264.339 116.169C264.568 116.484 264.671 116.873 264.631 117.26C264.591 117.648 264.409 118.007 264.12 118.268C263.832 118.53 263.457 118.676 263.067 118.679H263.08Z" fill="#0172FC"/>
<path d="M262.995 119.041L260.519 118.51L261.304 114.886L263.72 115.405C264.208 115.509 264.635 115.803 264.907 116.222C265.179 116.641 265.273 117.151 265.169 117.64C265.049 118.104 264.759 118.505 264.356 118.765C263.953 119.025 263.467 119.123 262.995 119.041Z" fill="white"/>
<path d="M283.797 103.24C283.797 99.8097 281.211 97.3091 272.586 97.9735C265.544 98.505 262.113 95.2193 264.13 90.641C269.832 93.6126 268.89 89.7229 279.762 89.2518C290.634 88.7806 293.787 92.8758 294.934 99.2419C301.59 109.111 290.102 113.206 290.102 113.206L285.609 117.132C284.678 117.344 283.707 117.302 282.797 117.011C281.888 116.72 281.073 116.19 280.438 115.477C280.438 115.477 279.557 107.468 283.797 103.24Z" fill="#263238"/>
<path d="M272.248 87.5485L271.97 87.6934C271.712 87.8311 271.494 88.0344 271.339 88.2829C271.184 88.5314 271.098 88.8164 271.088 89.1091C271.078 89.4018 271.146 89.6919 271.283 89.9502C271.421 90.2085 271.625 90.4259 271.874 90.5805L297.097 106.176C297.334 106.321 297.604 106.405 297.882 106.419C298.16 106.434 298.437 106.379 298.688 106.258C298.939 106.138 299.156 105.957 299.319 105.732C299.482 105.506 299.586 105.244 299.622 104.968C299.739 104.189 299.626 103.392 299.295 102.677C298.965 101.962 298.431 101.36 297.761 100.945L276.259 87.6572C275.658 87.2908 274.971 87.0881 274.268 87.069C273.564 87.0499 272.868 87.2152 272.248 87.5485Z" fill="#0172FC"/>
<path d="M276.791 89.2155L283.241 79.769C283.426 79.4997 283.706 79.311 284.025 79.2414C284.343 79.1718 284.677 79.2266 284.957 79.3945L302.763 90.0611C302.918 90.1522 303.053 90.2755 303.157 90.4228C303.262 90.5701 303.334 90.738 303.368 90.9152C303.402 91.0925 303.398 91.275 303.356 91.4506C303.314 91.6262 303.236 91.7909 303.125 91.9335L295.406 102.129L276.791 89.2155Z" fill="#0172FC"/>
<path d="M276.791 89.2155L279.364 84.6131L299.247 97.7561L295.406 102.129L276.791 89.2155Z" fill="#0172FC"/>
<path opacity="0.6" d="M276.791 89.2155L279.364 84.6131L299.247 97.7561L295.406 102.129L276.791 89.2155Z" fill="white"/>
<path d="M290.537 119.246C288.771 120.452 286.604 120.92 284.497 120.551C281.755 120.02 281.755 117.241 283.652 115.272C285.355 113.496 288.846 111.648 291.045 113.182C293.243 114.716 292.724 117.736 290.537 119.246Z" fill="#FFBE9D"/>
<path d="M285.162 417.393H301.011C301.011 417.393 298.522 361.028 295.104 332.06C294.065 323.241 295.188 311.161 295.297 297.668C295.442 280.671 296.227 262.153 297 247.621C297.822 232.315 298.51 221.286 298.51 221.286L266.087 225.913C266.087 225.913 262.874 306.16 267.912 334.282C273.154 363.492 285.162 417.393 285.162 417.393Z" fill="#0172FC"/>
<path opacity="0.2" d="M295.297 297.632C295.442 280.635 296.227 262.117 297 247.584L292.168 241.122C286.2 252.296 290.344 282.049 295.297 297.632Z" fill="black"/>
<path d="M281.538 223.666C281.538 223.666 301.675 303.189 311.242 328.907C321.716 357.053 360.287 389.959 360.287 389.959L370.036 379.232C370.036 379.232 349.633 347.426 334.593 316.827C327.405 277.096 315.664 218.786 315.664 218.786L281.538 223.666Z" fill="#0172FC"/>
<path d="M358.983 391.578L374.264 378.374L370.314 373.82L352.979 388.28L358.983 391.578Z" fill="#263238"/>
<path d="M283.168 417.755L302.061 417.731L302.049 411.631L280.946 411.341L283.168 417.755Z" fill="#263238"/>
<path d="M275.474 106.43C274.87 106.248 274.157 106.828 273.867 107.734L276.017 108.423C276.307 107.517 276.066 106.623 275.474 106.43Z" fill="#263238"/>
<path d="M266.051 104.654C265.435 104.654 264.843 105.354 264.843 106.309L267.09 106.454C267.126 105.499 266.679 104.75 266.051 104.654Z" fill="#263238"/>
<path d="M269.301 107.408C267.985 109.508 266.387 111.419 264.553 113.086C264.994 113.543 265.53 113.899 266.122 114.128C266.715 114.358 267.35 114.455 267.984 114.414L269.301 107.408Z" fill="#263238"/>
<path d="M278.542 105.463C278.617 105.481 278.696 105.481 278.771 105.463C278.883 105.427 278.976 105.349 279.03 105.245C279.084 105.141 279.096 105.02 279.061 104.907C278.873 104.229 278.525 103.606 278.046 103.091C277.566 102.576 276.97 102.184 276.307 101.948C276.252 101.93 276.193 101.923 276.135 101.928C276.077 101.934 276.02 101.951 275.969 101.98C275.918 102.008 275.873 102.047 275.838 102.093C275.803 102.14 275.777 102.193 275.763 102.25C275.747 102.305 275.742 102.364 275.748 102.421C275.754 102.479 275.772 102.535 275.8 102.585C275.828 102.636 275.866 102.68 275.912 102.716C275.957 102.752 276.01 102.778 276.065 102.793C276.591 102.995 277.06 103.32 277.434 103.74C277.808 104.161 278.076 104.664 278.216 105.209C278.247 105.274 278.293 105.33 278.349 105.374C278.406 105.418 278.472 105.448 278.542 105.463Z" fill="#263238"/>
<path d="M263.261 103.385C263.333 103.398 263.407 103.392 263.477 103.369C263.546 103.345 263.609 103.306 263.659 103.252C264.023 102.833 264.481 102.505 264.995 102.295C265.509 102.085 266.066 102 266.619 102.044C266.736 102.062 266.855 102.032 266.95 101.962C267.045 101.892 267.109 101.787 267.126 101.67C267.144 101.556 267.115 101.44 267.047 101.348C266.98 101.255 266.878 101.193 266.764 101.175C266.064 101.105 265.357 101.205 264.703 101.466C264.049 101.727 263.468 102.141 263.007 102.673C262.965 102.713 262.931 102.762 262.908 102.816C262.885 102.87 262.873 102.928 262.873 102.987C262.873 103.045 262.885 103.103 262.908 103.157C262.931 103.211 262.965 103.26 263.007 103.301C263.082 103.352 263.17 103.381 263.261 103.385Z" fill="#263238"/>
<path d="M370.048 398.995C370.663 398.433 371.214 397.805 371.691 397.123C371.715 397.087 371.727 397.045 371.727 397.002C371.727 396.959 371.715 396.917 371.691 396.881C371.672 396.841 371.641 396.808 371.601 396.788C371.562 396.768 371.517 396.763 371.473 396.772C371.087 396.772 367.644 397.34 367.197 398.439C367.148 398.56 367.131 398.691 367.147 398.821C367.164 398.95 367.215 399.072 367.294 399.176C367.408 399.362 367.568 399.517 367.758 399.624C367.948 399.732 368.162 399.79 368.381 399.792C369.012 399.727 369.601 399.446 370.048 398.995ZM371.014 397.304C370.012 398.596 369.045 399.345 368.393 399.345C368.245 399.342 368.1 399.3 367.973 399.223C367.846 399.147 367.741 399.039 367.668 398.91C367.64 398.867 367.625 398.817 367.625 398.766C367.625 398.714 367.64 398.664 367.668 398.621C367.837 398.053 369.637 397.545 371.014 397.304Z" fill="#0172FC"/>
<path d="M371.654 397.171C371.687 397.141 371.711 397.104 371.727 397.062C371.745 397.027 371.754 396.987 371.754 396.947C371.754 396.908 371.745 396.868 371.727 396.833C371.642 396.748 369.794 394.779 368.417 394.791C368.248 394.792 368.082 394.827 367.928 394.896C367.774 394.965 367.636 395.065 367.523 395.19C367.395 395.301 367.309 395.453 367.278 395.619C367.247 395.786 367.274 395.958 367.354 396.108C367.849 397.05 370.543 397.437 371.606 397.219L371.654 397.171ZM367.861 395.431C368.002 395.31 368.183 395.246 368.369 395.25C369.251 395.25 370.459 396.277 371.038 396.821C369.83 396.881 367.982 396.446 367.68 395.89C367.68 395.83 367.596 395.709 367.789 395.504L367.861 395.431Z" fill="#0172FC"/>
<path d="M289.04 430.258C289.078 430.245 289.113 430.221 289.138 430.188C289.164 430.156 289.18 430.118 289.184 430.077C289.195 430.032 289.19 429.985 289.17 429.943C289.15 429.902 289.117 429.868 289.076 429.847C288.641 429.63 284.884 427.721 283.748 428.362C283.64 428.419 283.548 428.503 283.482 428.607C283.416 428.711 283.379 428.831 283.374 428.953C283.349 429.154 283.375 429.357 283.449 429.545C283.522 429.733 283.642 429.899 283.797 430.029C284.824 430.935 287.505 430.56 289.015 430.258H289.04ZM284.038 428.712C284.751 428.47 286.793 429.243 288.278 429.92C286.213 430.27 284.654 430.186 284.087 429.666C283.986 429.58 283.908 429.469 283.862 429.344C283.815 429.22 283.801 429.085 283.821 428.953C283.821 428.905 283.835 428.858 283.86 428.818C283.886 428.777 283.923 428.745 283.966 428.724L284.038 428.712Z" fill="#0172FC"/>
<path d="M289.039 430.258H289.1C289.131 430.234 289.156 430.202 289.172 430.167C289.189 430.131 289.197 430.092 289.196 430.053C289.196 429.956 288.919 427.431 287.735 426.429C287.569 426.288 287.377 426.182 287.169 426.118C286.962 426.053 286.743 426.032 286.527 426.054C285.911 426.054 285.742 426.429 285.705 426.67C285.536 427.733 287.771 429.751 288.907 430.294C288.953 430.295 289 430.283 289.039 430.258ZM286.321 426.525H286.551C286.712 426.507 286.875 426.524 287.029 426.574C287.184 426.624 287.325 426.706 287.445 426.815C288.135 427.626 288.556 428.63 288.653 429.69C287.505 429.002 285.971 427.419 286.08 426.779C286.104 426.694 286.104 426.586 286.321 426.525Z" fill="#0172FC"/>
<path d="M304.888 196.003L295.876 198.854L302.871 205.812C302.871 205.812 311.037 202.272 308.476 198.672L304.888 196.003Z" fill="#FFBE9D"/>
<path d="M292.168 206.802L298.582 210.692L302.871 205.812L295.877 198.854L292.168 206.802Z" fill="#FFBE9D"/>
</svg>
